**ABCDEFGHIJKLMNOPQRSTUVWXYZabcdefghijklmnopqrstuvwxyz**************************
**PARASOLID !"#$%&'()*+,-./:;<=>?@[\]^_`{|}~0123456789**************************
**PART1;
MC=AMD64;
MC_MODEL=Intel64 Family 6 Model 183 Stepping 1, GenuineIntel;
MC_ID=unknown;
OS=Windows_NT;
OS_RELEASE=unknown;
FRU=Parasolid Version 36.1, build 228,  1-18-2025;
APPL=SOLIDWORKS 2025-2025135;
SITE=;
USER=unknown;
FORMAT=text;
GUISE=transmit;
KEY=makeProjectedPlanarWire;
FILE=makeProjectedPlanarWire.x_t;
DATE=Mon Jul 13 02:04:38 2026;
**PART2;
SCH=SCH_3601228_36001;
USFLD_SIZE=0;
**PART3;
**END_OF_HEADER*****************************************************************
T51 : TRANSMIT FILE created by modeller version 360122823 SCH_3601228_36001_1300
6231 0 12 36 CCCI7 lattice222 0 CCCI4 mesh1006 0 I8 polyline1008 0 CCCCCCCDI5 ow
ner1040 0 CCCI16 boundary_lattice222 0 CCCI13 boundary_mesh1006 0 I17 boundary_p
olyline1008 0 CCCA16 index_map_offset0 0 1 dA9 index_map82 0 A17 node_id_index_m
ap82 0 A20 schema_embedding_map82 0 A5 child12 0 A14 lowest_node_id0 0 1 dA16 me
sh_offset_data206 0 Z1 67 2 3 0 0 0 0 0 0 0 1e3 1e-8 0 4 0 1 0 3 1 5 0 6 7 8 0 0
 9 10 11 0 0 0 0 0 0 0 81 255 2 2 57 12 1 0 0 0 0 13 0 70 11 CI9 list_type0 0 1
 uI10 notransmit0 0 1 lCCCDCCDI12 finger_index0 0 1 dI12 finger_block1012 0 CZ3
 0 4 T1 0 0 2 20 1 14 14 13 255 5 63 0 1 0 15 0 0 9 15 50 255 6 3 0 15 0 0 0 +0
 .003 0 0 -1 0 0 0 -1 30 255 7 32 0 10 16 0 0 +-.01875 .003 0 0 0 -1 29 255 8 56
 0 11 17 0 -.01875 .003 0 19 9 CCCCCCI5 frame230 0 CA5 owner12 0 Z9 62 0 1 0 0 5
 0 V0 16 255 10 30 0 ?18 0 19 7 0 0 1 18 255 11 54 0 20 0 21 8 ?1 17 255 20 0 0
 0 0 11 22 23 0 24 +18 21 51 0 25 11 26 17 ?1 17 25 0 27 24 28 21 29 19 0 18 -18
 26 48 0 28 21 30 31 ?1 29 17 53 0 21 31 8 -.01875 .003 -.03654595072699415 29 3
1 50 0 26 32 17 .01875 .003 -.03654595072699415 29 32 47 0 30 33 31 .01875 .003
 0 18 30 45 0 22 26 34 32 ?1 29 33 44 0 34 35 32 .01625 .003 -.03521780125229005
 18 34 42 0 36 30 37 33 ?1 29 35 41 0 37 38 33 -.01625 .003 -.03521780125229005
 18 37 39 0 39 34 40 35 ?1 29 38 38 0 40 41 35 -.01625 .003 -.01369306393762914
 18 40 36 0 42 37 43 38 ?1 29 41 35 0 43 0 38 .01625 .003 -.01369306393762914 18
 43 33 0 44 40 0 41 ?1 17 44 0 45 42 46 43 36 47 0 48 +15 255 45 7 0 44 15 27 17
 42 0 45 39 44 40 48 49 0 50 +17 46 0 45 44 39 34 51 52 0 0 +17 36 0 0 0 0 34 44
 47 0 46 -16 47 9 0 ?44 49 0 53 0 0 1 17 48 0 0 0 0 43 42 49 0 0 -16 49 12 0 ?42
 54 47 55 0 0 1 16 54 15 0 ?39 52 49 56 0 0 1 31 255 55 14 0 49 53 56 0 +0 .003
 0 0 1 0 0 0 -1 .02125 30 53 11 0 47 0 55 0 +.01625 .003 -.01369306393762914 0 0
 1 30 56 17 0 54 55 57 0 +-.01625 .003 -.01369306393762914 0 0 -1 31 57 20 0 52
 56 58 0 +0 .003 -.01 0 -1 0 0 0 -1 .03 16 52 18 0 ?46 23 54 57 0 0 1 31 58 23 0
 23 57 59 0 +0 .003 0 0 1 0 0 0 -1 .01875 16 23 21 0 ?20 60 52 58 0 0 1 30 59 26
 0 60 58 16 0 +.01875 .003 0 0 0 1 16 60 24 0 ?61 19 23 59 0 0 1 31 16 29 0 19 5
9 7 0 +0 .003 -.01 0 -1 0 0 0 -1 .0325 16 19 27 0 ?29 10 60 16 0 0 1 17 29 0 0 0
 0 26 25 19 0 0 +17 61 0 0 0 0 30 28 60 0 0 +17 28 0 27 25 22 26 61 60 0 29 -15
 27 8 0 22 15 0 17 22 0 27 28 24 30 20 23 0 61 -17 24 0 27 22 25 11 18 10 0 0 -1
7 18 0 0 0 0 21 24 10 0 0 +14 255 15 1 62 ?0 0 45 5 6 -0 0 0 0 5 81 1 62 67 63 1
5 0 0 0 0 64 80 7 CCCCCDI12 legal_owners0 17 1 lCZ1 63 65 66 9000 1 1 1 1 1 1 1
 1 0 FFFFTFTFFFFFFFFFF1 82 255 1 64 1199964567 79 255 14 66 SWEntUnchanged17 39
 0 45 46 42 37 50 54 0 51 +17 50 0 0 0 0 40 39 54 0 0 -17 51 0 0 0 0 37 46 52 0
 0 -74 4 CI16 index_map_offset0 0 1 dCCZ20 14 2 0 0 2 62 0 0 0 0 0 0 0 0 0 0 0 0
 0 0 0 0 0 0 80 2 12 67 68 8004 0 0 0 0 3 5 0 0 0 FFTFFFFFFFFFFFFFF2 3 83 255 1
 13 1e3 79 16 68 SDL/TYSA_DENSITY1 0 
